<svg xmlns="http://www.w3.org/2000/svg" width="24" height="24" viewBox="0 0 24 24" fill="#277C30">
  <path d="M6.5 8C7.32843 8 8 7.32843 8 6.5C8 5.67157 7.32843 5 6.5 5C5.67157 5 5 5.67157 5 6.5C5 7.32843 5.67157 8 6.5 8Z"/>
  <path d="M5 10C5 9.44772 5.44772 9 6 9H7C7.55228 9 8 9.44771 8 10V18C8 18.5523 7.55228 19 7 19H6C5.44772 19 5 18.5523 5 18V10Z"/>
  <path d="M11 19H12C12.5523 19 13 18.5523 13 18V13.5C13 12.9477 13.4477 12.5 14 12.5C14.5523 12.5 15 12.9477 15 13.5V18C15 18.5523 15.4477 19 16 19H17C17.5523 19 18 18.5523 18 18V13C18 10.7909 16.2091 9 14 9C13.2316 9 12.5308 9.21885 11.9355 9.58579C11.7412 9.71885 11.5 9.55921 11.5 9.32699V10C11.5 10.5523 11.0523 11 10.5 11H10C9.44772 11 9 10.5523 9 10V10C9 9.44772 9.44772 9 10 9H10.5C10.7761 9 11 8.77614 11 8.5V8.5C11 8.22386 10.7761 8 10.5 8H10C9.44772 8 9 7.55228 9 7V7C9 6.44772 9.44772 6 10 6H10C10.5523 6 11 6.44772 11 7V18C11 18.5523 11.4477 19 12 19H11Z"/>
</svg>
